<svg height="56.693" viewBox="0 0 56.693 56.693" width="56.693" xmlns="http://www.w3.org/2000/svg"><path fill="#FFF" d="M28.347 5.155c-13.6 0-24.625 11.025-24.625 24.625 0 13.602 11.025 24.625 24.625 24.625 13.598 0 24.623-11.023 24.623-24.625 0-13.6-11.026-24.625-24.623-24.625zM42.062 41.74c0 1.097-.91 1.983-2.03 1.983H16.61c-1.122 0-2.03-.887-2.03-1.982V18.053c0-1.094.908-1.982 2.03-1.982H40.03c1.12 0 2.03.89 2.03 1.982v23.69z"/><path fill="#FFF" d="M33.1 26.44c-2.202 0-3.19 1.21-3.74 2.062v.04h-.028c.01-.01.02-.026.027-.04v-1.768h-4.15c.054 1.17 0 12.484 0 12.484h4.15v-6.973c0-.375.026-.744.136-1.012.3-.744.984-1.52 2.13-1.52 1.503 0 2.103 1.146 2.103 2.824v6.68h4.15V32.06c-.002-3.836-2.05-5.62-4.78-5.62zM20.864 20.712c-1.42 0-2.35.934-2.35 2.16 0 1.196.9 2.157 2.295 2.157h.026c1.447 0 2.348-.962 2.348-2.16-.027-1.224-.9-2.158-2.32-2.158zM18.762 26.734h4.15v12.484h-4.15z"/></svg>